<mxfile host="Electron" modified="2024-01-09T03:21:11.055Z" agent="Mozilla/5.0 (Windows NT 10.0; Win64; x64) AppleWebKit/537.36 (KHTML, like Gecko) draw.io/22.1.16 Chrome/120.0.6099.109 Electron/28.1.0 Safari/537.36" etag="RjgjOUG2COlbda_JJi5R" version="22.1.16" type="device">
  <diagram name="第 1 页" id="sqEBPeJ6V4tDbZmmqMEK">
    <mxGraphModel dx="717" dy="422" grid="1" gridSize="10" guides="1" tooltips="1" connect="1" arrows="1" fold="1" page="1" pageScale="1" pageWidth="827" pageHeight="1169" math="0" shadow="0">
      <root>
        <mxCell id="0" />
        <mxCell id="1" parent="0" />
        <mxCell id="8K-PvBR-3j_FLR83heZ0-1" value="&lt;font color=&quot;#ff0000&quot;&gt;0&lt;/font&gt;&lt;font color=&quot;#007fff&quot;&gt;110 1110 1000&lt;/font&gt;&lt;font color=&quot;#000000&quot;&gt; &lt;/font&gt;&lt;font color=&quot;#b266ff&quot;&gt;0110 0001 1011 1111 0000 1111 1001 0010 0001 0000 1000 0000 0000&lt;/font&gt;" style="text;strokeColor=none;align=center;fillColor=none;html=1;verticalAlign=middle;whiteSpace=wrap;rounded=0;fontColor=#f01414;" vertex="1" parent="1">
          <mxGeometry x="100" y="330" width="480" height="30" as="geometry" />
        </mxCell>
        <mxCell id="8K-PvBR-3j_FLR83heZ0-3" value="符号" style="text;strokeColor=none;align=center;fillColor=none;html=1;verticalAlign=middle;whiteSpace=wrap;rounded=0;" vertex="1" parent="1">
          <mxGeometry x="80" y="260" width="60" height="30" as="geometry" />
        </mxCell>
        <mxCell id="8K-PvBR-3j_FLR83heZ0-4" value="" style="strokeWidth=1;html=1;shape=mxgraph.flowchart.annotation_2;align=left;labelPosition=right;pointerEvents=1;rotation=90;" vertex="1" parent="1">
          <mxGeometry x="129" y="273.13" width="50" height="73.75" as="geometry" />
        </mxCell>
        <mxCell id="8K-PvBR-3j_FLR83heZ0-5" value="" style="endArrow=none;html=1;rounded=0;" edge="1" parent="1">
          <mxGeometry width="50" height="50" relative="1" as="geometry">
            <mxPoint x="110" y="336" as="sourcePoint" />
            <mxPoint x="110" y="286" as="targetPoint" />
          </mxGeometry>
        </mxCell>
        <mxCell id="8K-PvBR-3j_FLR83heZ0-6" value="指数（11位）" style="text;strokeColor=none;align=center;fillColor=none;html=1;verticalAlign=middle;whiteSpace=wrap;rounded=0;" vertex="1" parent="1">
          <mxGeometry x="124" y="260" width="86" height="30" as="geometry" />
        </mxCell>
        <mxCell id="8K-PvBR-3j_FLR83heZ0-7" value="" style="strokeWidth=1;html=1;shape=mxgraph.flowchart.annotation_2;align=left;labelPosition=right;pointerEvents=1;rotation=90;" vertex="1" parent="1">
          <mxGeometry x="360.23" y="122.89" width="50" height="374.22" as="geometry" />
        </mxCell>
        <mxCell id="8K-PvBR-3j_FLR83heZ0-8" value="尾数（52位）" style="text;strokeColor=none;align=center;fillColor=none;html=1;verticalAlign=middle;whiteSpace=wrap;rounded=0;" vertex="1" parent="1">
          <mxGeometry x="340" y="260" width="90" height="30" as="geometry" />
        </mxCell>
        <mxCell id="8K-PvBR-3j_FLR83heZ0-9" value="745" style="text;strokeColor=none;align=center;fillColor=none;html=1;verticalAlign=middle;whiteSpace=wrap;rounded=0;" vertex="1" parent="1">
          <mxGeometry x="119" y="360" width="60" height="30" as="geometry" />
        </mxCell>
        <mxCell id="8K-PvBR-3j_FLR83heZ0-10" value="1" style="text;strokeColor=none;align=center;fillColor=none;html=1;verticalAlign=middle;whiteSpace=wrap;rounded=0;" vertex="1" parent="1">
          <mxGeometry x="80" y="360" width="60" height="30" as="geometry" />
        </mxCell>
        <mxCell id="8K-PvBR-3j_FLR83heZ0-11" value="0.3818216067888897669035941362381" style="text;strokeColor=none;align=center;fillColor=none;html=1;verticalAlign=middle;whiteSpace=wrap;rounded=0;" vertex="1" parent="1">
          <mxGeometry x="290" y="380" width="60" height="30" as="geometry" />
        </mxCell>
      </root>
    </mxGraphModel>
  </diagram>
</mxfile>
